<svg preserveAspectRatio="none" width="100%" height="100%" overflow="visible" style="display: block;" viewBox="0 0 103.376 92.2428" fill="none" xmlns="http://www.w3.org/2000/svg">
<g id="Group 5">
<path id="Vector" fill-rule="evenodd" clip-rule="evenodd" d="M46.3676 23.6931C44.4347 16.8817 39.6074 5.49073 31.9573 0.361003C30.4311 -0.662394 28.645 0.640543 28.82 2.46977C29.1854 6.28696 29.7415 11.3992 30.3984 17.1394C29.8446 17.1769 29.2877 17.2379 28.7289 17.3235L14.1936 19.5497C10.1798 20.1645 7.42431 23.9166 8.03899 27.9305L8.41007 30.3531L7.80042 30.4465C2.78315 31.2149 -0.661218 35.9052 0.107219 40.9224L6.30947 81.4184C7.07785 86.4359 11.7653 89.8805 16.7826 89.1116L33.1377 86.607C42.4098 85.187 45.0642 87.2819 47.6314 89.3083C49.679 90.9251 51.6713 92.4972 56.9217 92.2083C57.1796 92.194 57.4251 92.1446 57.6551 92.0657C57.8155 92.0505 57.9775 92.0191 58.14 91.9716C61.9654 90.851 63.4285 89.0241 64.9793 87.0889C67.1882 84.3318 69.5749 81.353 79.2209 79.8755L95.5763 77.3707C100.593 76.6022 104.035 71.9125 103.267 66.8952L97.0154 26.0804C96.2464 21.0631 91.5567 17.6187 86.5393 18.3871L85.9333 18.48L85.5622 16.0572C84.9475 12.0433 81.1953 9.28786 77.1815 9.90264L77.0319 9.92555L76.9688 9.93496L63.1813 12.0466L63.0783 12.0626L62.6462 12.1288C55.3488 13.2465 49.6112 18.2529 47.2179 24.7181C46.9457 24.3663 46.6621 24.0245 46.3676 23.6931Z" fill="var(--fill-0, #DEE6FF)"/>
<path id="Vector_2" d="M97.0178 26.08C96.2488 21.0627 91.5591 17.6183 86.5414 18.3868L68.9779 21.0767C55.5984 23.1258 46.4135 35.6332 48.4627 49.0126L54.6774 89.5904C54.9336 91.2632 56.5184 92.4466 58.142 91.9713C67.4168 89.2539 62.8056 82.3896 79.223 79.8752C83.7893 79.1758 90.2911 78.18 95.5778 77.3702C100.595 76.6018 104.037 71.912 103.268 66.8947L97.0178 26.08Z" fill="var(--fill-0, #707FFF)"/>
<path id="Vector_3" d="M0.108684 40.9221C-0.659753 35.9048 2.78461 31.2146 7.80189 30.4461L25.3654 27.7561C38.7448 25.707 51.2521 34.892 53.3013 48.2713L59.516 88.849C59.7722 90.5219 58.6126 92.1149 56.9233 92.208C45.0898 92.8601 49.8068 84.0539 33.1391 86.6068C28.5729 87.3063 22.0711 88.3015 16.7841 89.1113C11.7668 89.8803 7.07932 86.4357 6.31094 81.418L0.108684 40.9221Z" fill="var(--fill-0, #707FFF)"/>
<path id="Vector_4" d="M85.5638 16.0567C84.9491 12.0429 81.197 9.28741 77.1831 9.90219L62.6478 12.1283C51.9442 13.7677 44.5962 23.7735 46.2356 34.4771L52.9142 78.0831C53.1191 79.421 54.3965 80.3837 55.6599 79.8981C61.2096 77.7649 59.8062 72.0688 72.7638 70.0842C76.4855 69.5142 81.7951 68.701 86.0906 68.0431C90.1045 67.4283 92.8572 63.6765 92.2422 59.6627L85.5638 16.0567Z" fill="var(--fill-0, #DEE6FF)"/>
<path id="Vector_5" d="M8.04084 27.9299C7.42615 23.9161 10.1816 20.1639 14.1954 19.5492L28.7307 17.323C39.4343 15.6836 49.4401 23.0316 51.0794 33.7352L57.758 77.3411C57.9629 78.6791 57.0409 79.9692 55.6874 79.9515C48.7627 79.8607 49.5879 73.6337 36.4242 75.6498C32.7027 76.2198 27.3929 77.0331 23.0975 77.6909C19.0837 78.3057 15.3342 75.5497 14.7195 71.536L8.04084 27.9299Z" fill="var(--fill-0, #DEE6FF)"/>
<path id="Vector_6" opacity="0.4" fill-rule="evenodd" clip-rule="evenodd" d="M42.915 20.9023L51.8233 79.0666C52.5286 79.408 53.2999 79.6809 54.2213 79.8294C54.6112 80.0098 55.0531 80.0647 55.5004 79.9479C55.5381 79.9489 55.576 79.9499 55.6142 79.9506C56.3702 79.9652 56.996 79.5796 57.3761 79.0039C58.0027 78.5753 58.5308 78.0867 59.0311 77.5621L50.1833 19.7932C48.9593 21.4081 47.9779 23.2057 47.2828 25.1263C46.0438 23.5002 44.5679 22.0776 42.915 20.9023Z" fill="var(--fill-0, #A0B2FF)"/>
<path id="Vector_7" opacity="0.8" d="M31.0025 17.0264L39.1702 19.2347L51.1355 71.3026C51.1355 71.3026 53.7117 79.7779 52.0911 79.2302C50.4706 78.6824 48.3646 76.6888 46.2958 76.0042C44.2271 75.3197 41.5607 75.2247 41.5607 75.2247L28.1639 76.6109L26.2983 66.8409L21.7617 18.785L31.0025 17.0264Z" fill="var(--fill-0, #A0B2FF)"/>
<path id="Vector_8" d="M31.9586 0.360116C40.2513 5.92089 45.227 18.8388 46.7947 25.3055C48.3954 36.6735 52.1274 63.5597 54.25 80.1607C52.656 71.8826 42.2681 61.5349 36.432 58.6759C35.5129 58.2257 34.7775 57.3989 34.6494 56.3834C32.6574 40.5772 29.9201 15.2512 28.801 2.46784C28.6408 0.63728 30.4324 -0.663282 31.9586 0.360116Z" fill="var(--fill-0, #DEE6FF)"/>
</g>
</svg>
